<svg width="46" height="46" viewBox="0 0 46 46" fill="none" xmlns="http://www.w3.org/2000/svg">
<path fill-rule="evenodd" clip-rule="evenodd" d="M2.12146 12.6501C2.12146 10.1793 4.2117 8.25488 6.69091 8.25488H39.3091C41.7884 8.25488 43.8785 10.1794 43.8785 12.6501V33.3501C43.8785 35.8207 41.7884 37.7453 39.3091 37.7453H6.69091C4.21169 37.7453 2.12146 35.8208 2.12146 33.3501V12.6501ZM6.69091 10.1453C5.16689 10.1453 4.01187 11.3101 4.01187 12.6501V33.3501C4.01187 34.6901 5.16691 35.8549 6.69091 35.8549H39.3091C40.8331 35.8549 41.9881 34.6901 41.9881 33.3501V12.6501C41.9881 11.3101 40.8331 10.1453 39.3091 10.1453H6.69091Z" fill="black"/>
<path fill-rule="evenodd" clip-rule="evenodd" d="M2.12146 18.4C2.12146 17.878 2.54464 17.4548 3.06667 17.4548H42.9333C43.4554 17.4548 43.8785 17.878 43.8785 18.4C43.8785 18.9221 43.4554 19.3452 42.9333 19.3452H3.06667C2.54464 19.3452 2.12146 18.9221 2.12146 18.4Z" fill="black"/>
</svg>
