<svg width="46" height="46" viewBox="0 0 46 46" fill="none" xmlns="http://www.w3.org/2000/svg">
<path fill-rule="evenodd" clip-rule="evenodd" d="M22.4187 4.32451C23.7731 3.76585 25.2935 3.76585 26.6479 4.32451L26.6479 4.32452L38.637 9.27006C40.9566 10.2269 42.3449 12.622 42.0214 15.1104C42.0214 15.1105 42.0214 15.1105 42.0214 15.1105L41.0883 22.2965C40.3935 27.6461 37.6552 32.5193 33.447 35.8946L28.0029 40.2612L28.0028 40.2612C25.9756 41.8871 23.0911 41.8871 21.0638 40.2612L21.0638 40.2612L15.6196 35.8946L16.1924 35.1804L15.6196 35.8946C11.4114 32.5193 8.67307 27.6461 7.9783 22.2965L7.9783 22.2965L7.04505 15.1104C7.04505 15.1104 7.04505 15.1104 7.04505 15.1104C6.72188 12.6221 8.10992 10.2269 10.4295 9.27007L10.4295 9.27007L22.4187 4.32451L22.7792 5.1983L22.4187 4.32451ZM25.927 6.07208C25.0343 5.70388 24.0322 5.70388 23.1396 6.07209L11.1504 11.0176L10.7899 10.1439L11.1504 11.0176C9.62155 11.6483 8.70672 13.227 8.91972 14.867L8.91972 14.867L9.85297 22.0531C10.4848 26.9183 12.9753 31.3503 16.8024 34.4199L22.2465 38.7865C23.5827 39.8581 25.4839 39.8581 26.8201 38.7865L32.2642 34.4199C36.0913 31.3503 38.5817 26.9183 39.2136 22.0531L40.1468 14.867L40.1468 14.8668C40.36 13.227 39.4451 11.6483 37.9162 11.0176L37.9161 11.0176L25.927 6.07209C25.927 6.07208 25.927 6.07208 25.927 6.07208Z" fill="black"/>
<path fill-rule="evenodd" clip-rule="evenodd" d="M31.191 16.4635C31.6253 16.7531 31.7427 17.34 31.4531 17.7743L24.824 27.7181C23.9564 29.0194 22.1151 29.2018 21.0091 28.0958L16.5817 23.6684C16.2125 23.2992 16.2125 22.7008 16.5817 22.3316C16.9508 21.9625 17.5493 21.9625 17.9184 22.3316L22.3458 26.7591C22.6083 27.0215 23.0452 26.9782 23.251 26.6694L29.8802 16.7257C30.1698 16.2913 30.7566 16.174 31.191 16.4635Z" fill="black"/>
</svg>
