<svg width="48" height="48" viewBox="0 0 48 48" fill="none" xmlns="http://www.w3.org/2000/svg">
<path d="M24 4C18.6957 4 13.6086 6.10714 9.85786 9.85786C6.10714 13.6086 4 18.6957 4 24C4 29.3043 6.10714 34.3914 9.85786 38.1421C13.6086 41.8929 18.6957 44 24 44C29.3043 44 34.3914 41.8929 38.1421 38.1421C41.8929 34.3914 44 29.3043 44 24C44 18.6957 41.8929 13.6086 38.1421 9.85786C34.3914 6.10714 29.3043 4 24 4Z" fill="black"/>
<path d="M33.95 15L30.204 34.126C30.204 34.126 30.043 35 28.959 35C28.383 35 28.086 34.726 28.086 34.726L19.972 27.993L16.002 25.992L10.907 24.637C10.907 24.637 10 24.375 10 23.625C10 23 10.933 22.702 10.933 22.702L32.249 14.234C32.248 14.233 32.9 13.999 33.375 14C33.667 14 34 14.125 34 14.5C34 14.75 33.95 15 33.95 15Z" fill="white"/>
<path d="M23 30.505L19.574 33.879C19.574 33.879 19.425 33.994 19.226 33.999C19.157 34.001 19.083 33.99 19.007 33.956L19.971 27.991L23 30.505Z" fill="#B0BEC5"/>
<path d="M29.897 18.196C29.728 17.976 29.416 17.936 29.196 18.103L16 26C16 26 18.106 31.892 18.427 32.912C18.749 33.933 19.007 33.957 19.007 33.957L19.971 27.992L29.803 18.896C30.023 18.729 30.064 18.416 29.897 18.196Z" fill="#CFD8DC"/>
</svg>
