<svg width="30" height="27" viewBox="0 0 30 27" fill="none" xmlns="http://www.w3.org/2000/svg">
<g clip-path="url(#clip0_4_52)">
<path d="M29.8584 17.5803C29.9455 17.6673 29.9944 17.7855 29.9944 17.9086C29.9944 18.0317 29.9455 18.1498 29.8584 18.2369L27.6 21.0302C27.4181 21.2111 26.5819 21.2111 26.4 21.0302L24.2861 18.2369C24.1101 18.0547 24.1129 17.7651 24.292 17.5861C24.4711 17.407 24.7607 17.4043 24.943 17.5803L26.0079 18.6447V2.31745L24.943 3.3818C24.7607 3.55775 24.4711 3.55505 24.292 3.37601C24.1129 3.19695 24.1101 2.90743 24.2861 2.72525L26.4 0.135692C26.5819 -0.0452311 27.4181 -0.0452305 27.6 0.135692L29.8584 2.72525C29.9479 2.81188 29.9989 2.93063 30 3.05517C30.0012 3.17973 29.9521 3.29951 29.864 3.38738C29.776 3.47547 29.6562 3.52457 29.5316 3.52333C29.407 3.5223 29.2882 3.47132 29.2015 3.38179L28.1367 2.31742V18.6446L29.2015 17.5803C29.2886 17.4933 29.4068 17.4443 29.53 17.4443C29.6531 17.4443 29.7712 17.4933 29.8584 17.5803ZM22.8 23.4181C22.7766 23.3615 22.2434 22.8645 22.2 22.8211L20.2987 21.2942C20.1165 21.1183 19.8269 21.121 19.6477 21.3001C19.4686 21.4791 19.4659 21.7686 19.6419 21.9508L20.7067 23.0152H2.5147L3.57952 21.9508C3.75555 21.7686 3.75285 21.4791 3.57372 21.3001C3.39459 21.1209 3.10495 21.1183 2.92268 21.2942L0.6 23.4181C0.419418 23.5998 0.419418 24.4303 0.6 24.6121L2.92268 26.8586C3.10492 27.0346 3.39456 27.0322 3.57372 26.8531C3.75287 26.674 3.75555 26.3845 3.57952 26.2023L2.5147 25.1375H20.7067L19.6419 26.2019C19.5524 26.2886 19.5014 26.4072 19.5002 26.5318C19.4991 26.6564 19.5483 26.7761 19.6364 26.864C19.7242 26.9521 19.8441 27.0012 19.9686 27C20.0933 26.9989 20.2121 26.948 20.2987 26.8584C21.3161 26.0435 21.9155 25.6311 22.8 24.6121C22.953 24.4442 22.9137 23.5196 22.8 23.4181ZM22.9335 4.017L15.3059 0.877713C15.3966 1.9139 15.0481 2.94059 14.3453 3.70759C13.6424 4.47459 12.6497 4.91142 11.6091 4.91163C10.5685 4.91184 9.57564 4.47561 8.87237 3.70881C8.16911 2.94224 7.82019 1.91576 7.91058 0.87957L0.287695 4.017C0.0710358 4.10632 -0.0452765 4.34278 0.0165048 4.56865L1.40976 9.67505C1.44419 9.80084 1.53003 9.90653 1.64634 9.96602C1.76265 10.0257 1.89845 10.0334 2.02077 9.98757L5.10878 8.82993V19.7654C5.10878 19.8884 5.1577 20.0065 5.24479 20.0936C5.33186 20.1807 5.45004 20.2295 5.5732 20.2295H17.6481C17.7712 20.2295 17.8895 20.1807 17.9765 20.0936C18.0636 20.0065 18.1126 19.8884 18.1126 19.7654V8.82993L21.2001 9.98757C21.3226 10.0334 21.4585 10.0255 21.5747 9.96602C21.6911 9.90653 21.7771 9.80084 21.8116 9.67505L23.2049 4.56865C23.2664 4.34275 23.15 4.1063 22.9335 4.017Z" fill="#FEAC92"/>
</g>
<defs>
<clipPath id="clip0_4_52">
<rect width="30" height="27" fill="white"/>
</clipPath>
</defs>
</svg>
