<svg width="47" height="46" viewBox="0 0 47 46" fill="none" xmlns="http://www.w3.org/2000/svg">
<path d="M7.83333 34.5L6.72554 33.4156L5.61772 34.5L6.72554 35.5843L7.83333 34.5ZM38.775 24.9166C38.775 24.0698 38.0734 23.3833 37.2083 23.3833C36.3432 23.3833 35.6417 24.0698 35.6417 24.9166H38.775ZM14.5589 25.7491L6.72554 33.4156L8.94112 35.5843L16.7745 27.9175L14.5589 25.7491ZM6.72554 35.5843L14.5589 43.251L16.7745 41.0823L8.94112 33.4156L6.72554 35.5843ZM7.83333 36.0333H27.4167V32.9666H7.83333V36.0333ZM27.4167 36.0333C33.6896 36.0333 38.775 31.0561 38.775 24.9166H35.6417C35.6417 29.3625 31.9591 32.9666 27.4167 32.9666V36.0333Z" fill="black"/>
<path d="M39.1667 11.4999L40.2746 12.5841L41.3823 11.4999L40.2746 10.4157L39.1667 11.4999ZM8.22501 21.0833C8.22501 21.9301 8.92643 22.6166 9.79167 22.6166C10.6569 22.6166 11.3583 21.9301 11.3583 21.0833H8.22501ZM32.4413 20.2508L40.2746 12.5841L38.0587 10.4157L30.2255 18.0824L32.4413 20.2508ZM40.2746 10.4157L32.4413 2.74902L30.2255 4.91747L38.0587 12.5841L40.2746 10.4157ZM39.1667 9.96659H19.5833V13.0333H39.1667V9.96659ZM19.5833 9.96659C13.3103 9.96659 8.22501 14.9437 8.22501 21.0833H11.3583C11.3583 16.6374 15.0408 13.0333 19.5833 13.0333V9.96659Z" fill="black"/>
</svg>
